<svg width="324" height="324" viewBox="0 0 324 324" fill="none" xmlns="http://www.w3.org/2000/svg">
<rect x="2.67258" y="2.95923" width="318" height="318" rx="52.5" fill="#BA5E63" stroke="#FCD0D2" stroke-width="5"/>
<g clip-path="url(#clip0_1_11)">
<path fill-rule="evenodd" clip-rule="evenodd" d="M174.465 120.889C178.835 118.713 184.396 115.51 189.963 111.122C191.136 113.556 191.265 115.68 190.66 117.395C190.232 118.604 189.424 119.655 188.362 120.492C187.212 121.396 185.776 122.054 184.188 122.409C181.176 123.087 177.659 122.691 174.465 120.889ZM175.223 143.184L181.007 146.521C169.196 153.131 165.985 165.406 162.171 177.362C158.358 165.406 155.146 153.131 143.335 146.521L149.12 143.184C149.68 142.973 150.158 142.59 150.486 142.091C150.815 141.592 150.977 141.002 150.949 140.405C150.419 129.208 153.446 124.256 157.53 121.147C158.995 120.034 160.594 119.475 162.171 119.475C163.749 119.475 165.348 120.034 166.813 121.147C170.897 124.256 173.924 129.208 173.394 140.405C173.366 141.002 173.528 141.592 173.857 142.091C174.185 142.59 174.663 142.973 175.223 143.184ZM162.171 70.073C168.858 70.2523 175.561 71.5485 181.378 74.0702C185.407 75.8186 189.166 78.1282 192.57 80.89C194.107 82.1368 195.372 83.3413 196.767 84.7279C200.527 84.8577 206.023 80.686 208.574 76.7825C204.183 91.1573 184.146 108.133 170.275 114.628C170.269 114.626 170.265 114.622 170.261 114.62C167.772 112.721 164.972 111.772 162.171 111.772C159.371 111.772 156.571 112.721 154.082 114.62C154.078 114.622 154.074 114.626 154.068 114.628C140.196 108.133 120.16 91.1573 115.769 76.7825C118.32 80.686 123.815 84.8577 127.576 84.7279C128.971 83.3417 130.236 82.1368 131.773 80.89C135.177 78.1282 138.936 75.8186 142.964 74.0702C148.782 71.5485 155.485 70.2523 162.171 70.073ZM149.877 120.889C145.508 118.713 139.947 115.51 134.38 111.122C133.207 113.556 133.078 115.68 133.682 117.395C134.111 118.604 134.919 119.655 135.98 120.492C137.131 121.396 138.567 122.054 140.155 122.409C143.167 123.087 146.683 122.691 149.877 120.889Z" fill="#FCD0D2"/>
<path fill-rule="evenodd" clip-rule="evenodd" d="M196.06 105.744C199.124 102.656 201.825 99.2372 203.996 96.1868L205.099 98.2595C208.649 105.353 210.494 112.417 210.494 120.368L210.486 132.984L210.553 139.525C210.81 155.581 214.289 171.826 222.17 186.692L205.681 173.415L194.014 192.321L181.757 180.799L162.171 212.539L142.585 180.799L130.329 192.321L118.662 173.415L102.173 186.693C110.053 171.826 113.532 155.581 113.79 139.525L113.857 132.985L113.849 120.369C113.849 112.417 115.693 105.353 119.245 98.26L120.347 96.1872C122.518 99.2377 125.218 102.656 128.283 105.745L127.326 107.73C125.467 111.586 124.851 115.897 126.3 119.998C127.233 122.639 128.938 124.904 131.135 126.632C133.268 128.312 135.793 129.443 138.436 130.038C140.158 130.425 141.912 130.584 143.655 130.53C143.248 132.832 143.071 135.219 143.059 137.652L127.505 146.623L139.508 153.342C140.467 153.879 141.381 154.494 142.238 155.181C152.134 164.054 158.083 190.3 162.172 203.121C166.261 190.3 172.21 164.054 182.106 155.181C182.963 154.494 183.877 153.879 184.836 153.342L196.839 146.623L181.284 137.652C181.273 135.219 181.095 132.832 180.688 130.53C182.431 130.584 184.186 130.425 185.907 130.038C188.551 129.443 191.076 128.312 193.209 126.632C195.405 124.904 197.11 122.639 198.043 119.998C199.492 115.897 198.876 111.586 197.017 107.73L196.06 105.745L196.06 105.744Z" fill="#FCD0D2"/>
</g>
<path d="M43.347 266.708V238.708H53.947C56.347 238.708 58.467 239.042 60.307 239.708C62.147 240.375 63.6937 241.322 64.947 242.548C66.2003 243.748 67.147 245.202 67.787 246.908C68.427 248.588 68.747 250.468 68.747 252.548C68.747 255.002 68.3337 257.122 67.507 258.908C66.707 260.668 65.6003 262.135 64.187 263.308C62.7737 264.455 61.1203 265.308 59.227 265.868C57.3337 266.428 55.307 266.708 53.147 266.708H43.347ZM52.467 260.708C55.1603 260.708 57.2803 260.068 58.827 258.788C60.3737 257.508 61.147 255.415 61.147 252.508C61.147 251.122 60.9337 249.935 60.507 248.948C60.107 247.962 59.5337 247.162 58.787 246.548C58.0403 245.908 57.147 245.442 56.107 245.148C55.067 244.855 53.9337 244.708 52.707 244.708H50.547V260.708H52.467ZM81.5658 266.988C79.9658 266.988 78.5124 266.762 77.2058 266.308C75.8991 265.828 74.7791 265.175 73.8458 264.348C72.9391 263.495 72.2324 262.495 71.7258 261.348C71.2458 260.175 71.0058 258.908 71.0058 257.548C71.0058 256.082 71.2591 254.748 71.7658 253.548C72.2724 252.322 72.9791 251.268 73.8858 250.388C74.8191 249.508 75.8991 248.828 77.1258 248.348C78.3791 247.868 79.7524 247.628 81.2458 247.628C82.7658 247.628 84.1124 247.882 85.2858 248.388C86.4858 248.868 87.4991 249.562 88.3258 250.468C89.1524 251.348 89.7791 252.428 90.2058 253.708C90.6591 254.962 90.8858 256.348 90.8858 257.868V258.908H77.4458C78.0591 260.988 79.6324 262.028 82.1658 262.028C83.1791 262.028 84.1258 261.855 85.0058 261.508C85.8858 261.162 86.6458 260.655 87.2858 259.988L90.7658 263.188C89.7524 264.362 88.4591 265.295 86.8858 265.988C85.3391 266.655 83.5658 266.988 81.5658 266.988ZM81.1258 252.708C79.1258 252.708 77.8858 253.628 77.4058 255.468H84.7258C84.6724 254.748 84.3391 254.108 83.7258 253.548C83.1391 252.988 82.2724 252.708 81.1258 252.708ZM91.6129 265.388L97.2129 256.588L92.1729 249.228V247.908H98.8529L101.893 252.308L104.533 247.908H110.653V249.228L105.773 257.068L111.253 265.428L111.293 266.708H104.773L101.293 261.388L97.8929 266.708H91.6129V265.388ZM122.327 266.988C120.887 266.988 119.621 266.842 118.527 266.548C117.434 266.228 116.487 265.828 115.687 265.348C114.887 264.842 114.221 264.282 113.687 263.668C113.181 263.055 112.767 262.442 112.447 261.828L117.327 257.308C117.514 257.708 117.754 258.108 118.047 258.508C118.367 258.908 118.741 259.282 119.167 259.628C119.594 259.975 120.074 260.255 120.607 260.468C121.141 260.682 121.754 260.788 122.447 260.788C123.354 260.788 124.074 260.588 124.607 260.188C125.141 259.788 125.407 259.242 125.407 258.548C125.407 257.802 125.114 257.202 124.527 256.748C123.941 256.268 123.207 255.842 122.327 255.468C121.447 255.095 120.501 254.708 119.487 254.308C118.474 253.882 117.527 253.348 116.647 252.708C115.767 252.068 115.034 251.255 114.447 250.268C113.861 249.282 113.567 248.028 113.567 246.508C113.567 245.175 113.807 244.002 114.287 242.988C114.767 241.948 115.434 241.082 116.287 240.388C117.141 239.695 118.154 239.175 119.327 238.828C120.501 238.482 121.794 238.308 123.207 238.308C124.567 238.308 125.741 238.468 126.727 238.788C127.741 239.082 128.594 239.455 129.287 239.908C129.981 240.362 130.541 240.855 130.967 241.388C131.421 241.922 131.754 242.402 131.967 242.828L127.327 246.948C126.794 246.175 126.194 245.575 125.527 245.148C124.887 244.722 124.141 244.508 123.287 244.508C122.621 244.508 122.061 244.655 121.607 244.948C121.181 245.215 120.967 245.655 120.967 246.268C120.967 246.962 121.261 247.508 121.847 247.908C122.461 248.308 123.207 248.682 124.087 249.028C124.967 249.348 125.927 249.695 126.967 250.068C128.034 250.442 129.007 250.948 129.887 251.588C130.767 252.202 131.501 253.015 132.087 254.028C132.701 255.015 133.007 256.295 133.007 257.868C133.007 259.335 132.754 260.642 132.247 261.788C131.741 262.908 131.007 263.855 130.047 264.628C129.114 265.402 127.994 265.988 126.687 266.388C125.381 266.788 123.927 266.988 122.327 266.988ZM144.872 266.988C143.379 266.988 142.019 266.775 140.792 266.348C139.565 265.922 138.512 265.295 137.632 264.468C136.779 263.642 136.112 262.642 135.632 261.468C135.152 260.268 134.912 258.922 134.912 257.428C134.912 255.882 135.165 254.508 135.672 253.308C136.179 252.082 136.872 251.055 137.752 250.228C138.632 249.375 139.672 248.735 140.872 248.308C142.099 247.855 143.432 247.628 144.872 247.628C146.605 247.628 148.139 247.922 149.472 248.508C150.805 249.068 151.792 249.748 152.432 250.548L149.232 254.828C148.725 254.348 148.179 253.948 147.592 253.628C147.005 253.282 146.325 253.108 145.552 253.108C144.912 253.108 144.365 253.228 143.912 253.468C143.459 253.682 143.085 253.988 142.792 254.388C142.499 254.762 142.285 255.202 142.152 255.708C142.019 256.215 141.952 256.735 141.952 257.268C141.952 258.468 142.259 259.482 142.872 260.308C143.512 261.108 144.445 261.508 145.672 261.508C146.419 261.508 147.059 261.348 147.592 261.028C148.125 260.708 148.672 260.282 149.232 259.748L152.992 263.508C152.139 264.708 150.992 265.588 149.552 266.148C148.139 266.708 146.579 266.988 144.872 266.988ZM166.163 247.628C166.617 247.628 167.097 247.682 167.603 247.788V253.668C167.043 253.455 166.377 253.348 165.603 253.348C164.483 253.348 163.577 253.655 162.883 254.268C162.19 254.882 161.843 255.935 161.843 257.428V266.708H155.243V247.908H161.483V251.268C161.777 250.255 162.31 249.402 163.083 248.708C163.857 247.988 164.883 247.628 166.163 247.628ZM179.925 266.988C178.325 266.988 176.872 266.762 175.565 266.308C174.258 265.828 173.138 265.175 172.205 264.348C171.298 263.495 170.592 262.495 170.085 261.348C169.605 260.175 169.365 258.908 169.365 257.548C169.365 256.082 169.618 254.748 170.125 253.548C170.632 252.322 171.338 251.268 172.245 250.388C173.178 249.508 174.258 248.828 175.485 248.348C176.738 247.868 178.112 247.628 179.605 247.628C181.125 247.628 182.472 247.882 183.645 248.388C184.845 248.868 185.858 249.562 186.685 250.468C187.512 251.348 188.138 252.428 188.565 253.708C189.018 254.962 189.245 256.348 189.245 257.868V258.908H175.805C176.418 260.988 177.992 262.028 180.525 262.028C181.538 262.028 182.485 261.855 183.365 261.508C184.245 261.162 185.005 260.655 185.645 259.988L189.125 263.188C188.112 264.362 186.818 265.295 185.245 265.988C183.698 266.655 181.925 266.988 179.925 266.988ZM179.485 252.708C177.485 252.708 176.245 253.628 175.765 255.468H183.085C183.032 254.748 182.698 254.108 182.085 253.548C181.498 252.988 180.632 252.708 179.485 252.708ZM201.878 266.988C200.278 266.988 198.825 266.762 197.518 266.308C196.212 265.828 195.092 265.175 194.158 264.348C193.252 263.495 192.545 262.495 192.038 261.348C191.558 260.175 191.318 258.908 191.318 257.548C191.318 256.082 191.572 254.748 192.078 253.548C192.585 252.322 193.292 251.268 194.198 250.388C195.132 249.508 196.212 248.828 197.438 248.348C198.692 247.868 200.065 247.628 201.558 247.628C203.078 247.628 204.425 247.882 205.598 248.388C206.798 248.868 207.812 249.562 208.638 250.468C209.465 251.348 210.092 252.428 210.518 253.708C210.972 254.962 211.198 256.348 211.198 257.868V258.908H197.758C198.372 260.988 199.945 262.028 202.478 262.028C203.492 262.028 204.438 261.855 205.318 261.508C206.198 261.162 206.958 260.655 207.598 259.988L211.078 263.188C210.065 264.362 208.772 265.295 207.198 265.988C205.652 266.655 203.878 266.988 201.878 266.988ZM201.438 252.708C199.438 252.708 198.198 253.628 197.718 255.468H205.038C204.985 254.748 204.652 254.108 204.038 253.548C203.452 252.988 202.585 252.708 201.438 252.708ZM226.791 257.268C226.791 255.828 226.498 254.802 225.911 254.188C225.351 253.575 224.671 253.268 223.871 253.268C222.858 253.268 222.085 253.655 221.551 254.428C221.018 255.202 220.725 256.095 220.671 257.108V266.708H214.071V247.908H220.311V251.148C220.845 250.135 221.618 249.295 222.631 248.628C223.645 247.962 224.938 247.628 226.511 247.628C228.671 247.628 230.351 248.268 231.551 249.548C232.778 250.828 233.391 252.802 233.391 255.468V266.708H226.791V257.268ZM246.605 266.988C245.005 266.988 243.551 266.762 242.245 266.308C240.938 265.828 239.818 265.175 238.885 264.348C237.978 263.495 237.271 262.495 236.765 261.348C236.285 260.175 236.045 258.908 236.045 257.548C236.045 256.082 236.298 254.748 236.805 253.548C237.311 252.322 238.018 251.268 238.925 250.388C239.858 249.508 240.938 248.828 242.165 248.348C243.418 247.868 244.791 247.628 246.285 247.628C247.805 247.628 249.151 247.882 250.325 248.388C251.525 248.868 252.538 249.562 253.365 250.468C254.191 251.348 254.818 252.428 255.245 253.708C255.698 254.962 255.925 256.348 255.925 257.868V258.908H242.485C243.098 260.988 244.671 262.028 247.205 262.028C248.218 262.028 249.165 261.855 250.045 261.508C250.925 261.162 251.685 260.655 252.325 259.988L255.805 263.188C254.791 264.362 253.498 265.295 251.925 265.988C250.378 266.655 248.605 266.988 246.605 266.988ZM246.165 252.708C244.165 252.708 242.925 253.628 242.445 255.468H249.765C249.711 254.748 249.378 254.108 248.765 253.548C248.178 252.988 247.311 252.708 246.165 252.708ZM269.718 247.628C270.171 247.628 270.651 247.682 271.158 247.788V253.668C270.598 253.455 269.931 253.348 269.158 253.348C268.038 253.348 267.131 253.655 266.438 254.268C265.745 254.882 265.398 255.935 265.398 257.428V266.708H258.798V247.908H265.038V251.268C265.331 250.255 265.865 249.402 266.638 248.708C267.411 247.988 268.438 247.628 269.718 247.628Z" fill="#FCD0D2"/>
<defs>
<clipPath id="clip0_1_11">
<rect width="119.997" height="142.654" fill="white" transform="translate(102.173 70.073)"/>
</clipPath>
</defs>
</svg>
